<mxfile host="app.diagrams.net" modified="2023-04-03T03:32:51.766Z" agent="Mozilla/5.0 (Windows NT 10.0; Win64; x64) AppleWebKit/537.36 (KHTML, like Gecko) Chrome/111.0.0.0 Safari/537.36" version="21.1.1" etag="qoB9vMIeTXQ5FXaXH5N1" type="github">
  <diagram name="第 1 页" id="tsptPx9ejESeR7F-Kwjc">
    <mxGraphModel>
      <root>
        <mxCell id="0" />
        <mxCell id="1" parent="0" />
      </root>
    </mxGraphModel>
  </diagram>
</mxfile>
